<?xml version="1.0" encoding="UTF-8" standalone="no"?>
<!DOCTYPE svg PUBLIC "-//W3C//DTD SVG 1.1//EN" "http://www.w3.org/Graphics/SVG/1.1/DTD/svg11.dtd">
<svg width="100%" height="100%" viewBox="0 0 1297 839" version="1.1" xmlns="http://www.w3.org/2000/svg" xmlns:xlink="http://www.w3.org/1999/xlink" xml:space="preserve" xmlns:serif="http://www.serif.com/" style="fill-rule:evenodd;clip-rule:evenodd;stroke-linejoin:round;stroke-miterlimit:2;">
    <g transform="matrix(1,0,0,1,-43.804,-5.96327)">
        <g transform="matrix(1.64241,0,0,1.64241,-3007.25,-2248.5)">
            <path d="M1987.66,1883.03L1968.65,1831.99L1901.43,1831.99L1882.65,1883.03L1857.66,1883.03L1923.13,1710.79L1947.77,1710.79L2012.89,1883.03L1987.66,1883.03ZM1961.97,1811.1L1943.9,1760.54C1943.35,1758.82 1942.51,1756.24 1941.38,1752.79C1940.24,1749.35 1939.11,1745.79 1937.97,1742.12C1936.84,1738.44 1935.92,1735.39 1935.22,1732.97C1934.43,1736.17 1933.54,1739.56 1932.52,1743.11C1931.5,1746.67 1930.5,1750 1929.53,1753.09C1928.55,1756.18 1927.75,1758.66 1927.12,1760.54L1908.82,1811.1L1961.97,1811.1Z" style="fill-rule:nonzero;"/>
            <path d="M2083.4,1711.5C2105.53,1711.5 2121.71,1715.91 2131.91,1724.75C2142.12,1733.59 2147.22,1746.14 2147.22,1762.41C2147.22,1769.77 2146.05,1776.75 2143.7,1783.36C2141.36,1789.97 2137.55,1795.79 2132.27,1800.84C2126.99,1805.88 2120.04,1809.87 2111.44,1812.81C2102.84,1815.74 2092.28,1817.2 2079.76,1817.2L2060.17,1817.2L2060.17,1883.03L2036.12,1883.03L2036.12,1711.5L2083.4,1711.5ZM2081.52,1731.67L2060.17,1731.67L2060.17,1796.91L2077.18,1796.91C2087.12,1796.91 2095.45,1795.79 2102.17,1793.56C2108.9,1791.34 2113.98,1787.76 2117.42,1782.83C2120.87,1777.9 2122.59,1771.41 2122.59,1763.35C2122.59,1752.72 2119.26,1744.78 2112.61,1739.54C2105.97,1734.3 2095.6,1731.67 2081.52,1731.67Z" style="fill-rule:nonzero;"/>
            <path d="M2238.39,1883.03L2214.22,1883.03L2214.22,1732.26L2162.12,1732.26L2162.12,1711.5L2290.36,1711.5L2290.36,1732.26L2238.39,1732.26L2238.39,1883.03Z" style="fill-rule:nonzero;"/>
            <rect x="2316.41" y="1711.5" width="24.052" height="171.531" style="fill-rule:nonzero;"/>
            <path d="M2386.69,1883.03L2386.69,1711.5L2410.74,1711.5L2410.74,1862.14L2485.24,1862.14L2485.24,1883.03L2386.69,1883.03Z" style="fill-rule:nonzero;"/>
            <path d="M2621.69,1883.03L2602.68,1831.99L2535.46,1831.99L2516.68,1883.03L2491.69,1883.03L2557.16,1710.79L2581.8,1710.79L2646.92,1883.03L2621.69,1883.03ZM2596,1811.1L2577.93,1760.54C2577.38,1758.82 2576.54,1756.24 2575.41,1752.79C2574.27,1749.35 2573.14,1745.79 2572,1742.12C2570.87,1738.44 2569.95,1735.39 2569.25,1732.97C2568.46,1736.17 2567.57,1739.56 2566.55,1743.11C2565.53,1746.67 2564.53,1750 2563.56,1753.09C2562.58,1756.18 2561.78,1758.66 2561.15,1760.54L2542.85,1811.1L2596,1811.1Z" style="fill-rule:nonzero;"/>
        </g>
        <g transform="matrix(1.86723,0,0,1.86723,132.751,-274.121)">
            <g transform="matrix(0.64194,0,0,0.64194,-32.5934,18.8837)">
                <path d="M518.107,204.25L740.337,365.71L655.452,626.957L380.761,626.957L295.876,365.71L518.107,204.25Z" style="fill:none;"/>
            </g>
            <g>
                <g transform="matrix(0.160485,0,0,0.160485,216.852,117.221)">
                    <path d="M518.107,204.25L740.337,365.71L655.452,626.957L380.761,626.957L295.876,365.71L518.107,204.25Z" style="fill:rgb(190,9,9);"/>
                </g>
                <g transform="matrix(0.160485,0,0,0.160485,282.952,320.596)">
                    <path d="M518.107,204.25L740.337,365.71L655.452,626.957L380.761,626.957L295.876,365.71L518.107,204.25Z" style="fill:rgb(190,9,9);"/>
                </g>
            </g>
            <path d="M333.47,421.353L211.832,421.353L157.342,253.647L255.733,182.162L259.019,192.275L169.23,257.51L219.18,411.24L330.185,411.24L333.47,421.353ZM396.506,362.966L430.77,257.51L340.981,192.275L344.267,182.162L442.658,253.647L405.108,369.216L396.506,362.966Z"/>
            <path d="M193.006,265.236L233.874,391.014L226.527,401.127L181.118,261.373L193.006,265.236ZM418.882,261.373L406.994,265.236L334.41,212.5L337.695,202.387L418.882,261.373Z"/>
        </g>
    </g>
</svg>